<svg width="80" height="80" viewBox="0 0 80 80" fill="none" xmlns="http://www.w3.org/2000/svg">
<circle cx="40" cy="40" r="40" fill="white"/>
<path d="M15.8552 26C14.2679 26 14 26.7779 14 27.6111C14 29.115 15.2477 37.2335 22.0716 46.5694C27.0166 53.3433 33.5351 57.2447 39.305 57.2447C42.8002 57.2447 43.1617 56.3537 43.1617 54.9665V48.7745C43.1617 47.1039 43.5466 46.8298 44.6589 46.8298C45.4546 46.8298 47.0673 47.3506 50.1918 50.9958C53.7954 55.1992 54.4477 57.2447 56.514 57.2447H61.9737C63.2401 57.2447 63.9705 56.7157 63.9997 55.6825C64.0039 55.42 63.9651 55.1205 63.8777 54.7956C63.4736 53.5958 61.6251 50.6667 59.313 47.8713C58.0299 46.3216 56.7676 44.7866 56.1885 43.9576C55.7928 43.4118 55.643 43.0305 55.6596 42.6639C55.6763 42.2806 55.8763 41.9069 56.1804 41.3945C56.1262 41.3945 63.174 31.5053 63.8614 28.1725C63.9572 27.8559 64.0041 27.5602 63.9916 27.3019C63.9582 26.5478 63.4384 26 62.2178 26H56.7662C55.3915 26 54.753 26.8307 54.3822 27.668C54.3822 27.668 50.9875 34.6631 47.0673 39.279C45.7967 40.6121 45.151 40.5809 44.4636 40.5809C44.097 40.5809 43.1617 40.1377 43.1617 38.9129V28.1155C43.1617 26.6699 42.8067 26 41.6402 26H31.9576C31.1077 26 30.6639 26.6637 30.6639 27.3344C30.6639 28.7217 32.5344 29.0617 32.7468 32.9568V40.4995C32.7468 42.3325 32.4334 42.6639 31.746 42.6639C29.8922 42.6639 26.2419 36.4116 23.7965 28.2213C23.2674 26.6091 22.7384 26 21.3637 26H15.8552Z" fill="#0D090A"/>
</svg>
