<svg width="512" height="300" viewBox="0 0 512 300" fill="none" xmlns="http://www.w3.org/2000/svg">
<path d="M2 1C2 0.447715 1.55228 0 1 0C0.447715 0 0 0.447715 0 1H1H2ZM511.998 228.557C512.03 228.006 511.609 227.533 511.057 227.502L502.072 226.986C501.521 226.954 501.048 227.376 501.016 227.927C500.985 228.478 501.406 228.951 501.957 228.983L509.944 229.441L509.486 237.428C509.454 237.979 509.876 238.452 510.427 238.484C510.978 238.515 511.451 238.094 511.483 237.543L511.998 228.557ZM1 1H0C0 14.7466 4.27764 31.947 12.1664 51.065C20.0611 70.1973 31.5979 91.3115 46.1791 112.903C75.3397 156.085 116.717 201.236 165.605 236.312C214.49 271.387 270.938 296.424 330.225 299.28C389.543 302.137 451.608 282.784 511.665 229.246L511 228.5L510.335 227.754C450.642 280.966 389.082 300.113 330.322 297.282C271.531 294.451 215.448 269.613 166.77 234.688C118.095 199.764 76.8791 154.79 47.8365 111.784C33.3161 90.2822 21.8491 69.287 14.0152 50.3022C6.17548 31.303 2 14.3784 2 1H1Z" fill="#F5F4EB" fill-opacity="0.8"/>
</svg>
