<svg width="80" height="78" viewBox="0 0 80 78" fill="none" xmlns="http://www.w3.org/2000/svg">
<path d="M35.5099 0.277423C17.0725 2.28148 2.24247 17.1115 0.23841 35.1481C-1.76565 53.9862 9.05627 70.8203 25.4896 77.2333C26.692 77.6341 27.8944 76.8325 27.8944 75.2293V68.8163C27.8944 68.8163 26.2912 69.2171 24.2871 69.2171C18.6758 69.2171 16.2709 64.4073 15.8701 61.6017C15.4693 59.9984 14.6676 58.796 13.4652 57.5935C12.2628 57.1927 11.862 57.1927 11.862 56.7919C11.862 55.9903 13.0644 55.9903 13.4652 55.9903C15.8701 55.9903 17.8741 58.796 18.6758 59.9984C20.6798 63.2049 23.0847 64.0065 24.2871 64.0065C25.8904 64.0065 27.0928 63.6057 27.8944 63.2049C28.2952 60.3992 29.4977 57.5935 31.9026 55.9903C22.6839 53.9862 15.8701 48.7757 15.8701 39.9578C15.8701 35.5489 17.8741 31.1399 20.6798 27.9335C20.279 27.1318 19.8782 25.1278 19.8782 22.3221C19.8782 20.7188 19.8782 18.314 21.0806 15.9091C21.0806 15.9091 26.692 15.9091 32.3034 21.1196C34.3074 20.318 37.1131 19.9172 39.9188 19.9172C42.7245 19.9172 45.5302 20.318 47.935 21.1196C53.1456 15.9091 59.1578 15.9091 59.1578 15.9091C59.9594 18.314 59.9594 20.7188 59.9594 22.3221C59.9594 25.5286 59.5586 27.1318 59.1578 27.9335C61.9635 31.1399 63.9675 35.1481 63.9675 39.9578C63.9675 48.7757 57.1537 53.9862 47.935 55.9903C50.3399 57.9944 51.9432 61.6017 51.9432 65.209V75.6301C51.9432 76.8325 53.1456 78.035 54.7488 77.6341C69.5789 71.622 80 57.1927 80 40.3586C80 16.3099 59.5586 -2.52826 35.5099 0.277423Z" fill="white"/>
</svg>
