<svg width="80" height="80" viewBox="0 0 80 80" fill="none" xmlns="http://www.w3.org/2000/svg">
<circle cx="40" cy="40" r="40" fill="white"/>
<path d="M40 15C26.2 15 15 26.2 15 40C15 53.8 26.2 65 40 65H52.5V60H40C29.15 60 20 50.85 20 40C20 29.15 29.15 20 40 20C50.85 20 60 29.15 60 40V43.575C60 45.55 58.225 47.5 56.25 47.5C54.275 47.5 52.5 45.55 52.5 43.575V40C52.5 33.1 46.9 27.5 40 27.5C33.1 27.5 27.5 33.1 27.5 40C27.5 46.9 33.1 52.5 40 52.5C43.45 52.5 46.6 51.1 48.85 48.825C50.475 51.05 53.275 52.5 56.25 52.5C61.175 52.5 65 48.5 65 43.575V40C65 26.2 53.8 15 40 15ZM40 47.5C35.85 47.5 32.5 44.15 32.5 40C32.5 35.85 35.85 32.5 40 32.5C44.15 32.5 47.5 35.85 47.5 40C47.5 44.15 44.15 47.5 40 47.5Z" fill="black"/>
</svg>
