<svg width="80" height="80" viewBox="0 0 80 80" fill="none" xmlns="http://www.w3.org/2000/svg">
<circle cx="40" cy="40" r="40" fill="white"/>
<path d="M30.7153 49.2986L31.0972 43.5456L30.7153 31.0608C30.6994 30.9016 30.6397 30.7663 30.5362 30.6549C30.4328 30.5435 30.3015 30.4878 30.1424 30.4878C29.9991 30.4878 29.8718 30.5435 29.7604 30.6549C29.649 30.7663 29.5933 30.9016 29.5933 31.0608L29.2591 43.5456L29.5933 49.2986C29.6092 49.4578 29.6689 49.589 29.7724 49.6925C29.8758 49.7959 29.9991 49.8477 30.1424 49.8477C30.4925 49.8477 30.6834 49.6646 30.7153 49.2986ZM37.7812 48.6063L38.0438 43.5694L37.7574 29.5807C37.7574 29.3261 37.6539 29.1351 37.447 29.0078C37.3197 28.9282 37.1924 28.8885 37.0651 28.8885C36.9378 28.8885 36.8105 28.9282 36.6832 29.0078C36.4763 29.1351 36.3728 29.3261 36.3728 29.5807L36.349 29.724L36.1102 43.5456C36.1102 43.5615 36.1978 45.4394 36.3728 49.1793V49.2031C36.3728 49.3623 36.4206 49.4975 36.5161 49.6089C36.6593 49.784 36.8423 49.8715 37.0651 49.8715C37.2402 49.8715 37.3993 49.7999 37.5425 49.6567C37.6858 49.5453 37.7574 49.3861 37.7574 49.1793L37.7812 48.6063ZM12.8355 40.49L13.3129 43.5456L12.8355 46.5534C12.8037 46.6966 12.7321 46.7682 12.6207 46.7682C12.5093 46.7682 12.4376 46.6966 12.4058 46.5534L12 43.5456L12.4058 40.49C12.4376 40.3468 12.5093 40.2752 12.6207 40.2752C12.7321 40.2752 12.8037 40.3468 12.8355 40.49ZM14.8885 38.6042L15.5091 43.5456L14.8885 48.3915C14.8566 48.5347 14.7771 48.6063 14.6497 48.6063C14.5065 48.6063 14.4349 48.5268 14.4349 48.3676L13.8859 43.5456L14.4349 38.6042C14.4349 38.4609 14.5065 38.3893 14.6497 38.3893C14.7771 38.3893 14.8566 38.4609 14.8885 38.6042ZM17.0846 37.697L17.6814 43.5456L17.0846 49.2031C17.0846 49.3782 16.9971 49.4657 16.822 49.4657C16.6629 49.4657 16.5674 49.3782 16.5356 49.2031L16.0343 43.5456L16.5356 37.697C16.5674 37.5061 16.6629 37.4106 16.822 37.4106C16.9971 37.4106 17.0846 37.5061 17.0846 37.697ZM19.3286 37.5299L19.8776 43.5456L19.3286 49.3702C19.2967 49.5771 19.1853 49.6806 18.9944 49.6806C18.7875 49.6806 18.684 49.5771 18.684 49.3702L18.1827 43.5456L18.684 37.5299C18.684 37.3231 18.7875 37.2196 18.9944 37.2196C19.1853 37.2196 19.2967 37.3231 19.3286 37.5299ZM21.5725 37.9596L22.0738 43.5456L21.5725 49.418C21.5407 49.6726 21.4133 49.7999 21.1905 49.7999C21.0951 49.7999 21.0115 49.7641 20.9399 49.6925C20.8683 49.6209 20.8325 49.5294 20.8325 49.418L20.355 43.5456L20.8325 37.9596C20.8325 37.8641 20.8683 37.7806 20.9399 37.709C21.0115 37.6374 21.0951 37.6016 21.1905 37.6016C21.4133 37.6016 21.5407 37.7209 21.5725 37.9596ZM23.8164 34.4744L24.3177 43.5456L23.8164 49.418C23.8164 49.5294 23.7766 49.6288 23.697 49.7164C23.6175 49.8039 23.522 49.8477 23.4106 49.8477C23.156 49.8477 23.0127 49.7044 22.9809 49.418L22.5512 43.5456L22.9809 34.4744C23.0127 34.1879 23.156 34.0447 23.4106 34.0447C23.522 34.0447 23.6175 34.0885 23.697 34.176C23.7766 34.2635 23.8164 34.363 23.8164 34.4744ZM26.0603 32.4214L26.5139 43.5933L26.0603 49.418C26.0603 49.5453 26.0166 49.6527 25.929 49.7402C25.8415 49.8278 25.7341 49.8715 25.6068 49.8715C25.3203 49.8715 25.1612 49.7203 25.1293 49.418L24.7474 43.5933L25.1293 32.4214C25.1612 32.1191 25.3203 31.9679 25.6068 31.9679C25.7341 31.9679 25.8415 32.0116 25.929 32.0992C26.0166 32.1867 26.0603 32.2941 26.0603 32.4214ZM28.3997 31.4666L28.8294 43.5456L28.3997 49.3225C28.3679 49.6567 28.1929 49.8238 27.8746 49.8238C27.5722 49.8238 27.4051 49.6567 27.3733 49.3225L26.9913 43.5456L27.3733 31.4666C27.3733 31.3234 27.425 31.2 27.5284 31.0966C27.6319 30.9931 27.7473 30.9414 27.8746 30.9414C28.0178 30.9414 28.1372 30.9931 28.2326 31.0966C28.3281 31.2 28.3838 31.3234 28.3997 31.4666ZM33.0308 31.3711L33.3889 43.5456L33.0308 49.2509C33.0308 49.41 32.9711 49.5493 32.8518 49.6686C32.7324 49.788 32.5932 49.8477 32.434 49.8477C32.2749 49.8477 32.1396 49.792 32.0282 49.6806C31.9168 49.5692 31.8532 49.4259 31.8372 49.2509L31.503 43.5456L31.8372 31.3711C31.8372 31.196 31.8969 31.0528 32.0163 30.9414C32.1356 30.83 32.2749 30.7743 32.434 30.7743C32.5932 30.7743 32.7324 30.83 32.8518 30.9414C32.9711 31.0528 33.0308 31.196 33.0308 31.3711ZM35.3941 31.8247L35.7283 43.5694L35.3941 49.2031C35.3941 49.3782 35.3304 49.5294 35.2031 49.6567C35.0758 49.784 34.9246 49.8477 34.7496 49.8477C34.5745 49.8477 34.4233 49.784 34.296 49.6567C34.1687 49.5294 34.0971 49.3782 34.0812 49.2031L33.7947 43.5694L34.0812 31.8247C34.0971 31.6337 34.1687 31.4745 34.296 31.3472C34.4233 31.2199 34.5745 31.1562 34.7496 31.1562C34.9246 31.1562 35.0718 31.2199 35.1912 31.3472C35.3105 31.4745 35.3782 31.6337 35.3941 31.8247ZM40.4549 43.5694L40.1207 49.0838C40.1207 49.2907 40.049 49.4657 39.9058 49.6089C39.7626 49.7522 39.5875 49.8238 39.3806 49.8238C39.1738 49.8238 38.9987 49.7522 38.8555 49.6089C38.7122 49.4657 38.6327 49.2907 38.6168 49.0838L38.4735 46.3624L38.3303 43.5694L38.6168 28.3872V28.3155C38.6486 28.0768 38.7441 27.8859 38.9032 27.7426C39.0464 27.6312 39.2056 27.5755 39.3806 27.5755C39.508 27.5755 39.6273 27.6153 39.7387 27.6949C39.9615 27.8222 40.0888 28.0291 40.1207 28.3155L40.4549 43.5694ZM67 43.1159C67 44.9779 66.3396 46.5653 65.0187 47.8783C63.6978 49.1912 62.1063 49.8477 60.2444 49.8477H41.4813C41.2745 49.8158 41.0994 49.7283 40.9562 49.5851C40.8129 49.4418 40.7413 49.2668 40.7413 49.0599V27.5994C40.7413 27.2334 40.9641 26.9708 41.4097 26.8116C42.7624 26.2705 44.2027 26 45.7305 26C48.8338 26 51.5233 27.0464 53.799 29.1391C56.0748 31.2318 57.3479 33.806 57.6185 36.8615C58.462 36.5114 59.3372 36.3364 60.2444 36.3364C62.1063 36.3364 63.6978 36.9968 65.0187 38.3177C66.3396 39.6386 67 41.238 67 43.1159Z" fill="#0D090A"/>
</svg>
