<svg width="80" height="80" viewBox="0 0 80 80" fill="none" xmlns="http://www.w3.org/2000/svg">
<circle cx="40" cy="40" r="40" fill="white"/>
<path d="M35.0805 24C29.1575 24 23.5677 24.6601 18.3062 25.9832C16.9908 26.3101 16 27.2928 16 29.2659C16 31.239 17.3172 32.887 19.2903 32.5562C20.2749 32.5562 20.6082 32.2257 21.2659 32.2257C25.5428 31.2372 30.4767 30.5805 35.0805 30.5805C44.2921 30.5805 53.8303 32.8808 60.4111 36.5C61.3957 36.8269 61.7215 37.1611 62.3792 37.1611C64.3561 37.1611 65.6731 35.8439 66 33.8708C66 32.2285 65.0203 31.2382 64.0319 30.5805C55.8088 26.3036 45.2767 24 35.0805 24ZM34.427 35.5159C28.8347 35.5159 24.8891 36.5031 20.9429 37.4916C19.2968 38.1493 18.6367 38.8052 18.6367 40.4513C18.6367 41.7667 19.6198 43.0805 21.2659 43.0805C21.9236 43.0805 22.2534 43.0808 22.9111 42.75C25.8726 42.0923 29.8195 41.4354 34.0965 41.4354C42.6465 41.4354 50.5444 43.4051 56.1367 47.0243C56.7944 47.3513 57.4547 47.6854 58.1124 47.6854C59.7547 47.6854 60.7375 46.368 61.0721 44.7257C61.0721 43.741 60.4154 42.7541 59.427 42.0965C52.1885 37.8195 43.6385 35.5159 34.427 35.5159ZM35.4111 47.107C30.8072 47.107 26.5269 47.7636 22.25 48.7521C20.9346 48.7521 20.2819 49.7354 20.2819 51.0508C20.2819 52.3662 21.2651 53.357 22.5805 53.357C22.9113 53.357 23.568 53.0264 24.2257 53.0264C27.5141 52.3687 31.4613 51.7118 35.0805 51.7118C41.6575 51.7118 47.9118 53.3552 52.8465 56.3167C53.5041 56.6436 53.8339 56.9703 54.4916 56.9703C55.4762 56.9703 56.4631 56.3177 57.1208 54.6716C57.1208 53.3562 56.4639 53.0231 55.8062 52.3654C49.8831 49.0769 42.9764 47.107 35.4111 47.107Z" fill="black"/>
</svg>
