<svg width="80" height="80" viewBox="0 0 80 80" fill="none" xmlns="http://www.w3.org/2000/svg">
<circle cx="40" cy="40" r="40" fill="white"/>
<path d="M59.6528 15.0296C58.7461 14.9317 57.7606 15.0759 56.7704 15.4745C55.5428 15.9662 36.3077 24.206 18.3772 31.8926L12.4525 34.4318C10.1583 35.3791 9 36.9197 9 38.9948C9 40.4476 9.60381 42.4183 12.4845 43.5795L22.485 47.6596C23.3498 50.3014 25.3583 56.4353 25.8629 58.066C26.163 59.0327 26.921 61.4681 28.8359 62.0376C29.2288 62.1737 29.6387 62.2438 30.056 62.2438C31.2645 62.2438 32.1346 61.671 32.5602 61.3377L38.9164 55.8632L46.6366 63.1336C46.934 63.4419 48.5078 65 50.6219 65C53.2598 65 55.2608 62.7638 55.6781 60.5998C55.9046 59.4136 63.3504 21.3504 63.3504 21.3559C64.0187 18.303 62.817 16.7192 62.045 16.0442C61.3835 15.4678 60.5595 15.1275 59.6528 15.0296ZM57.8466 21.0304C56.8182 26.2807 51.212 54.9389 50.3608 59.0697L39.0763 48.4409L31.42 55.0439L33.5405 46.5961C33.5405 46.5961 48.1691 31.5171 49.0502 30.6392C49.7594 29.9364 49.908 29.6901 49.908 29.4456C49.908 29.1206 49.7437 28.8868 49.3645 28.8868C49.0235 28.8868 48.5604 29.2195 48.3149 29.3751C45.196 31.3552 31.9149 39.0602 25.3781 42.847L15.8944 38.9893L20.4977 37.0198C32.225 31.9918 53.111 23.0361 57.8466 21.0304Z" fill="black"/>
</svg>
