<svg width="80" height="80" viewBox="0 0 80 80" fill="none" xmlns="http://www.w3.org/2000/svg">
<g clip-path="url(#clip0_19_141)">
<path d="M40.3373 9.11354C40.3335 5.99294 40.3335 4.76651 40.3372 -0.00030867C56.8372 -0.0281243 68.8757 10.0336 74.4864 19.7531C67.4188 23.8578 66.6428 24.3043 66.6428 24.3043C61.4588 15.4546 51.5872 9.21936 40.3373 9.11354Z" fill="white"/>
<path d="M13.7236 25.176L13.7212 55.1846C13.7212 55.1846 30.987 65.1532 39.6843 70.0253L39.7124 40.1577L13.7236 25.176ZM20.0237 35.3622C20.5553 35.3409 21.1803 35.4741 21.906 35.7589C22.7418 36.0869 33.3665 41.9718 33.5985 42.2354C33.7722 42.4326 33.7975 42.7167 33.7957 44.4637C33.7947 45.5652 33.7472 46.5404 33.6901 46.6305C33.553 46.8468 33.855 46.9982 28.0852 43.8168C21.4917 40.1812 21.5686 40.2175 21.1125 40.5508C20.8942 40.7103 20.8883 40.8354 20.9264 44.6127C20.9707 49.0095 20.9743 49.0319 21.8431 49.8947C22.5578 50.6043 23.0623 50.905 28.4514 53.8375C31.1728 55.3184 33.489 56.6342 33.5985 56.7617C33.7719 56.9636 33.7975 57.2538 33.7975 59.0109C33.7975 60.4864 33.7592 61.0595 33.6553 61.1453C33.5514 61.2309 32.0915 60.4889 28.2378 58.392C25.3364 56.8132 22.6236 55.3016 22.2093 55.0326C21.161 54.3519 19.5994 52.7627 19.0355 51.8026C17.8772 49.8305 17.6499 48.3629 17.6482 42.8335C17.647 38.602 17.72 37.6477 18.1133 36.7599C18.5116 35.8607 19.1377 35.3976 20.0237 35.3622Z" fill="white"/>
<path d="M66.9671 55.1476C72.6449 44.9172 71.7428 33.437 66.9624 24.8584C67.0244 24.6971 72.2006 21.8368 74.8055 20.3058C82.823 34.9641 80.5222 49.8703 74.8277 59.6914C71.6416 57.906 69.9646 56.9126 66.9671 55.1476Z" fill="white"/>
<path d="M5.13146 20.3831L13.0133 24.8013C7.5056 35.8412 8.02209 44.2089 12.9684 55.1337L5.12048 59.6217C-2.77285 45.4269 -0.534166 30.3808 5.13146 20.3831Z" fill="white"/>
<path d="M66.2608 25.295C66.2608 25.295 49.1236 35.0411 40.3361 40.1565C40.3361 62.7408 40.2702 63.7404 40.3196 70.0253C49.7539 64.7248 57.7126 60.2513 66.2266 55.1931C66.2692 26.5697 66.155 45.328 66.2608 25.295ZM55.172 37.5808C55.6905 37.5581 55.9926 37.9821 56.9438 39.7897C57.4963 40.8395 59.0944 43.8611 60.4954 46.5048C61.8965 49.1485 63.0262 51.3961 63.0064 51.4987C62.9866 51.6013 62.3882 52.0151 61.6765 52.4185L60.3825 53.1515L60.1848 52.9074C60.076 52.7732 59.6188 51.9975 59.1691 51.1831C58.7195 50.3687 58.3156 49.7024 58.2713 49.7024C58.2271 49.7024 56.5537 50.6094 54.5531 51.7178L50.916 53.7332L49.8924 56.683L48.8689 59.6328L48.1865 60.043C46.731 60.9172 45.758 61.4033 45.6889 61.2917C45.65 61.229 46.2123 59.5031 46.9383 57.4557C47.6643 55.4083 49.387 50.54 50.7664 46.6372C52.1459 42.7345 53.3817 39.313 53.5124 39.0347C53.8166 38.3865 54.4921 37.7119 54.9339 37.615C55.0194 37.5963 55.0979 37.5841 55.172 37.5808ZM54.6538 43.1515C54.5999 43.1343 54.1092 44.4272 53.5631 46.025C52.7872 48.295 52.6128 48.9142 52.7666 48.8564C53.1558 48.7102 56.5416 46.8501 56.605 46.7477C56.6756 46.6337 54.814 43.2028 54.6538 43.1515Z" fill="white"/>
<path d="M5.51123 19.7244C11.5708 8.77121 25.0196 -0.0313166 39.6551 -0.000284413V9.11354C27.1432 9.5581 18.4887 15.8942 13.3345 24.2496C10.3548 22.529 8.90095 21.6755 5.51123 19.7244Z" fill="white"/>
<path d="M13.2899 55.6904C19.0617 65.2819 29.2412 70.7802 39.6754 70.9088L39.6839 79.9998C25.984 80.0837 12.6292 72.5277 5.45752 60.2083L13.2899 55.6904Z" fill="white"/>
<path d="M39.9948 9.79456L14.1226 24.6676L40.0241 39.5907L65.9085 24.7329L39.9948 9.79456ZM28.1204 19.504C29.6727 19.5025 29.9152 19.5267 30.0588 19.7006C30.1491 19.8098 31.1147 21.7005 32.2048 23.9016C33.295 26.1028 34.2141 27.9039 34.2477 27.9025C34.2812 27.9018 35.1278 26.3324 36.1288 24.4149C37.1297 22.4975 38.0746 20.7793 38.2284 20.5966C39.0735 19.5927 40.9066 19.6229 41.6702 20.6533C41.8256 20.8631 42.7324 22.5417 43.6855 24.3838C44.6387 26.2259 45.4619 27.7784 45.5148 27.8335C45.5683 27.8892 46.5289 26.1004 47.6797 23.8027C48.8175 21.5309 49.8063 19.6347 49.877 19.5889C49.9476 19.543 50.839 19.5054 51.8576 19.504C53.3501 19.5026 53.7218 19.5333 53.7716 19.6627C53.8056 19.751 52.4087 22.6501 50.668 26.105C47.7479 31.9007 47.468 32.4109 47.0425 32.7053C46.1855 33.2983 44.7591 33.2318 44.0042 32.5637C43.7513 32.3399 43.0674 31.1326 41.8203 28.7081C40.8218 26.7669 39.9693 25.1791 39.9258 25.1791C39.8822 25.1791 39.0404 26.7246 38.0551 28.6135C37.0697 30.5025 36.187 32.1657 36.0934 32.3098C35.9999 32.4539 35.7156 32.6777 35.4611 32.8073C34.8699 33.1083 33.7742 33.1855 33.1869 32.9672C32.3684 32.663 32.136 32.3085 30.306 28.5848C26.9047 21.6635 26.0114 19.7174 26.1868 19.6066C26.2746 19.551 27.1447 19.5054 28.1204 19.504Z" fill="white"/>
<path d="M40.3374 79.9998C40.3139 76.5238 40.2961 74.0004 40.3197 70.9087C52.6585 70.9121 62.8722 62.6138 66.6344 55.7249C70.0241 57.6775 71.291 58.4129 74.4981 60.2597C63.4373 79.2094 43.1749 79.9998 40.3374 79.9998Z" fill="white"/>
</g>
<defs>
<clipPath id="clip0_19_141">
<rect width="80" height="80" fill="white"/>
</clipPath>
</defs>
</svg>
